# xmcd CD database file
#
# Track frame offsets:
#	150
#	2603
#	41269
#	66772
#	86306
#	110020
#	141237
#	148086
#	169100
#	190807
#	198850
#	224131
#
# Disc length: 3105 seconds
#
# Revision: 0
# Processed by: cddbd v1.5.1PL0 Copyright (c) Steve Scherf et al.
# Submitted via: CDex 1.51
#
DISCID=aa0c1f0c
DTITLE=Scott Matelic - Primitive
DYEAR=1900
DGENRE=Hip-Hop
TTITLE0=Intro
TTITLE1=Ripple Effect
TTITLE2=It's Calm Now
TTITLE3=To Impress the Empress
TTITLE4=Finding  Away
TTITLE5=Starch
TTITLE6=Daybreak/Twilight
TTITLE7=Loss of Interest
TTITLE8=Carefully Cordially Subtly
TTITLE9=Mended Winding
TTITLE10=Don't Ask for Help
TTITLE11=Outro
EXTD=
EXTT0=
EXTT1=
EXTT2=
EXTT3=
EXTT4=
EXTT5=
EXTT6=
EXTT7=
EXTT8=
EXTT9=
EXTT10=
EXTT11=
PLAYORDER=
